PathFileType	4	(X/Y/Z)	D:\TRACE\v60_Jaco2_6-2-23\JustArmDRS_Motion3_2-platform.trc
DataRate	CameraRate	NumFrames	NumMarkers	Units	OrigDataRate	OrigDataStartFrame	OrigNumFrames
100.00	100.00	      72	5	mm	100.00	2626	      7000
Frame#	Time	Left_Front			Right_Front			Left_Aft			Right_Aft			Post			
		X1	Y1	Z1	X2	Y2	Z2	X3	Y3	Z3	X4	Y4	Z4	X5	Y5	Z5	

2626	26.250	-779.97693	1.46548	-652.77509	790.09332	-0.03619	-630.04822	-711.84137	16.45332	481.06927	702.79578	15.37489	586.90167	15.61284	1295.29211	-981.70636	
2627	26.260	-780.17169	0.40936	-653.29297	790.13507	-0.80359	-630.38123	-711.81281	17.07659	480.87640	702.71606	15.81766	586.59753	15.68564	1294.04309	-983.04510	
2628	26.270	-780.14032	-0.65672	-653.78540	790.24237	-1.51024	-630.47815	-711.80261	17.67922	480.55670	702.62213	16.44738	586.47968	15.75919	1293.10730	-984.90802	
2629	26.280	-780.05872	-0.69791	-653.20172	790.26581	-2.06882	-630.60059	-711.70935	18.10316	480.51013	702.80499	17.03720	586.34186	16.04852	1291.93604	-986.24213	
2630	26.290	-780.16913	-1.64181	-653.71912	790.22754	-2.93082	-630.80054	-711.70978	18.56043	480.49948	702.82843	17.54276	586.10608	15.82260	1291.15796	-988.10431	
2631	26.300	-780.17908	-2.50300	-654.25104	790.30627	-3.66328	-631.01471	-711.79279	19.08451	480.26041	703.04755	18.16573	585.93048	16.03293	1289.74500	-989.46149	
2632	26.310	-780.21228	-2.81969	-654.05408	790.35144	-4.27291	-631.06873	-711.73480	19.40370	480.01303	703.35205	18.63189	585.81012	15.87283	1288.88086	-990.97742	
2633	26.320	-780.07532	-3.41873	-654.14606	790.34003	-4.81968	-631.09735	-711.69342	19.88335	479.79428	703.08960	19.07331	585.64893	16.06092	1287.89771	-992.37378	
2634	26.330	-780.15289	-4.34753	-654.25977	790.18329	-5.47560	-631.37799	-711.77509	20.29588	479.76486	702.81909	19.68718	585.60480	16.30569	1287.03552	-993.57153	
2635	26.340	-780.15900	-4.98799	-654.56738	790.41693	-6.34834	-631.90082	-711.74548	20.69420	479.71643	702.90759	20.14535	585.35046	15.91821	1286.19531	-995.10944	
2636	26.350	-779.89160	-5.42867	-654.55444	790.22607	-6.67777	-631.57483	-711.75165	21.22109	479.47726	702.95215	20.81091	585.16382	16.22530	1285.27441	-996.13300	
2637	26.360	-780.12402	-5.86878	-654.83136	790.24689	-7.36918	-631.82281	-711.82629	21.66372	479.35355	702.88696	21.17260	584.94025	16.27383	1284.09595	-997.43256	
2638	26.370	-780.05798	-6.32974	-654.89856	790.24091	-7.83845	-631.91052	-711.81360	21.96104	479.27493	702.78778	21.45020	584.89459	15.96131	1283.48010	-998.67932	
2639	26.380	-780.10620	-7.19496	-654.86603	790.51880	-8.61853	-632.29950	-711.79175	22.20275	479.12918	702.69238	21.85441	584.83759	15.99029	1282.58044	-999.70837	
2640	26.390	-780.06946	-7.53570	-654.97931	790.01855	-9.14334	-632.15851	-711.81158	22.63054	478.82458	702.61938	22.14405	584.30267	16.07762	1281.59973	-1000.79156	
2641	26.400	-780.35248	-8.15360	-655.12140	789.86340	-9.50689	-632.29071	-711.80945	22.88502	478.69745	703.12573	23.10861	584.30005	15.55629	1280.79724	-1001.98529	
2642	26.410	-780.43311	-8.77973	-655.33124	789.70508	-10.05107	-632.43103	-712.02100	23.40559	478.50803	703.09241	23.47739	584.18524	15.75144	1279.99268	-1003.17670	
2643	26.420	-780.21722	-9.26470	-655.12946	789.84607	-10.69956	-632.78497	-712.25623	23.89675	478.32028	702.87769	23.79703	584.10254	15.33627	1279.04773	-1004.08813	
2644	26.430	-780.64819	-9.71658	-655.39014	789.55200	-11.06962	-632.57562	-712.32562	24.12626	478.13339	702.39105	24.11954	584.11041	15.19030	1278.38098	-1005.47125	
2645	26.440	-780.92950	-10.04492	-655.64105	789.36060	-11.65337	-632.65259	-712.42090	24.42006	478.06369	702.20508	24.41975	583.88007	15.45157	1277.89783	-1006.59442	
2646	26.450	-781.08728	-10.58500	-655.75439	789.28186	-12.00794	-632.66986	-712.49567	24.57155	478.11499	702.07410	24.88391	583.61090	15.26829	1277.15417	-1007.65588	
2647	26.460	-781.07428	-10.94248	-655.76990	789.05658	-12.48297	-632.78326	-712.68738	24.88314	477.94922	701.98718	25.11005	583.54327	15.22474	1276.35071	-1008.70038	
2648	26.470	-781.00342	-11.29425	-655.59454	789.27704	-13.03988	-633.20343	-712.83362	25.18223	477.84961	701.98041	25.41343	583.45898	15.16854	1275.81421	-1009.47290	
2649	26.480	-781.38953	-11.84889	-655.74860	788.99860	-13.21936	-633.00598	-713.01630	25.44582	477.65585	701.73199	25.80922	583.33966	14.82953	1275.10071	-1010.52631	
2650	26.490	-781.65369	-12.37677	-655.90277	788.88965	-13.55536	-633.05957	-713.19989	25.82554	477.45572	701.45404	26.12185	583.30817	14.33915	1274.62817	-1011.43762	
2651	26.500	-781.82886	-12.76315	-656.06677	788.65546	-13.96795	-633.14954	-713.34265	26.00960	477.41751	701.40460	26.48877	582.84155	14.65646	1273.95435	-1011.81000	
2652	26.510	-781.90973	-13.08282	-656.16907	788.49921	-14.26970	-633.21472	-713.53839	26.27877	477.36197	701.49109	26.92766	583.00281	14.42254	1273.29114	-1012.44775	
2653	26.520	-783.26447	-14.47981	-658.08911	788.65778	-14.96233	-633.57611	-713.67529	26.50770	477.23154	701.48767	27.25339	583.10437	14.35194	1272.74023	-1013.06317	
2654	26.530	-782.08484	-13.83796	-656.21594	788.17432	-15.23774	-633.35486	-713.81915	26.82241	477.14297	701.38037	27.51236	583.00238	14.17714	1272.35168	-1013.78333	
2655	26.540	-782.34143	-14.15405	-656.29785	787.98901	-15.56601	-633.44556	-713.98145	26.98730	477.02701	700.86157	27.89314	582.91974	14.05353	1271.75842	-1014.57123	
2656	26.550	-782.58984	-14.61496	-656.33685	787.89532	-15.77663	-633.51343	-714.15613	27.23813	476.93378	700.79004	28.08425	582.76196	13.80968	1271.10535	-1015.01935	
2657	26.560	-782.76434	-14.86981	-656.32208	787.71228	-16.13775	-633.54681	-714.28180	27.50559	476.76996	700.65833	28.29008	582.58978	13.77910	1270.44128	-1015.80530	
2658	26.570	-782.91840	-15.07540	-656.34033	787.44281	-16.51002	-633.53900	-714.32117	27.68069	476.68478	700.44769	28.43896	582.53058	13.48416	1270.21985	-1016.74701	
2659	26.580	-783.03296	-15.28216	-656.40216	787.28107	-16.81478	-633.60992	-714.39636	27.88241	476.63089	700.24042	28.61730	582.44037	13.02936	1269.60999	-1017.30750	
2660	26.590	-783.11804	-15.62504	-656.43713	787.16522	-17.08435	-633.70416	-714.53912	28.04878	476.67319	700.07135	28.81887	582.38751	13.30847	1269.13574	-1018.30402	
2661	26.600	-783.33130	-16.08355	-656.47784	786.97125	-17.44526	-633.82666	-714.78326	28.28889	476.68051	699.64252	29.05937	582.45898	13.21633	1268.60217	-1019.19177	
2662	26.610	-783.46594	-16.49552	-656.57953	786.90320	-17.69955	-633.89587	-714.96283	28.53482	476.63083	699.66046	29.28303	582.26245	13.04271	1268.34363	-1019.92993	
2663	26.620	-783.72662	-16.69665	-656.79102	786.81262	-17.93723	-633.90631	-715.28210	28.88738	476.58133	699.42847	29.66788	582.04425	12.76722	1267.87439	-1020.48090	
2664	26.630	-783.88672	-16.99997	-656.97052	786.64844	-18.17215	-633.96185	-715.45532	29.08860	476.36237	699.59015	30.04963	582.02185	12.80630	1267.26062	-1020.89752	
2665	26.640	-783.91840	-16.97719	-656.78979	786.52740	-18.49593	-634.07501	-715.44464	29.08278	476.36810	699.51318	30.21634	581.92218	12.66080	1266.84814	-1021.30536	
2666	26.650	-784.13171	-17.24276	-656.81787	786.47723	-19.03310	-634.42480	-715.57269	29.22114	476.30032	699.34662	30.39476	581.87531	12.51885	1266.53992	-1021.74921	
2667	26.660	-784.42517	-17.55596	-656.91687	786.39160	-19.28072	-634.46802	-715.76416	29.47443	476.15396	699.16681	30.49742	581.81641	12.29552	1266.29663	-1022.25146	
2668	26.670	-784.62256	-17.95389	-657.07031	786.26599	-19.56035	-634.54431	-715.85754	29.63176	476.01624	698.86346	30.67854	581.88550	11.80388	1265.63977	-1022.45789	
2669	26.680	-784.75287	-18.22874	-657.07452	786.12042	-19.85032	-634.62793	-716.05267	29.85605	475.88565	698.78040	30.88574	581.79022	11.78051	1265.14709	-1022.93982	
2670	26.690	-784.73950	-18.45967	-657.16290	785.98041	-20.05529	-634.63641	-716.13721	29.94792	475.80637	698.69464	31.13593	581.69385	11.89757	1264.96948	-1023.40833	
2671	26.700	-784.81281	-18.78424	-657.43750	785.90186	-20.24839	-634.66656	-716.24451	30.11254	475.76041	698.61908	31.36044	581.52380	11.91657	1264.57715	-1023.91376	
2672	26.710	-784.93781	-18.97759	-657.56110	785.86353	-20.43868	-634.74164	-716.37122	30.25540	475.72052	698.53619	31.51703	581.35168	11.83356	1264.21436	-1024.51208	
2673	26.720	-785.02960	-18.86454	-657.32996	785.74396	-20.69167	-634.87823	-716.43506	30.45707	475.71378	698.36469	31.71362	581.28693	11.31807	1263.67273	-1025.05200	
2674	26.730	-785.15369	-19.12998	-657.47675	785.61932	-20.91678	-634.97559	-716.51105	30.61754	475.67920	698.33661	31.84272	581.25793	11.39856	1263.57495	-1025.83264	
2675	26.740	-784.95148	-19.38861	-657.24500	785.51514	-21.19205	-635.02057	-716.57751	30.78124	475.64597	698.29956	31.84323	581.10370	11.40808	1263.15979	-1026.37610	
2676	26.750	-785.10529	-19.75247	-657.38928	785.44250	-21.43016	-635.08179	-716.60852	30.85630	475.54529	697.97632	32.20618	581.31024	11.56286	1262.66418	-1026.93286	
2677	26.760	-785.41400	-20.26146	-657.55896	785.33594	-21.63607	-635.04309	-716.62805	30.94122	475.55566	697.93268	32.40665	581.24976	11.58380	1262.22180	-1027.52881	
2678	26.770	-785.44550	-20.45271	-657.58771	785.22375	-21.82010	-635.10083	-716.69482	31.10044	475.49228	697.79156	32.60650	581.17694	11.05041	1261.71558	-1027.91309	
2679	26.780	-785.47217	-20.80318	-657.74890	785.18433	-21.98595	-635.14514	-716.78662	31.33610	475.39355	698.14404	33.07916	581.05560	11.02920	1261.65784	-1028.55066	
2680	26.790	-785.44781	-20.97960	-657.78595	785.21869	-22.18810	-635.18134	-716.85242	31.45825	475.35959	698.15930	33.24067	580.94409	11.05585	1261.32190	-1029.09033	
2681	26.800	-785.52399	-21.23629	-657.77374	785.25500	-22.44313	-635.18213	-716.87378	31.71303	475.32297	697.89838	33.12139	580.95532	11.07761	1261.04834	-1029.39343	
2682	26.810	-785.45721	-21.13548	-657.50757	785.21222	-22.74747	-635.17230	-716.92719	31.85481	475.20074	697.87244	33.24526	580.95886	11.21247	1260.74194	-1029.82275	
2683	26.820	-785.56311	-21.33537	-657.57465	785.20898	-23.01467	-635.20367	-716.98206	31.95861	475.07114	697.87244	33.49537	580.90454	11.29891	1260.42285	-1030.04395	
2684	26.830	-785.61566	-21.59624	-657.74854	785.20190	-23.31793	-635.27600	-716.97137	32.11482	474.97653	697.90723	33.70495	580.81097	11.01381	1259.69983	-1030.20959	
2685	26.840	-785.64423	-21.87022	-657.80249	785.20074	-23.60886	-635.36737	-716.95990	32.21575	474.88306	697.91791	33.91003	580.68439	11.17438	1259.38086	-1030.73511	
2686	26.850	-785.27258	-22.14038	-657.39746	785.19171	-23.81130	-635.41516	-716.95068	32.35427	474.79953	697.99402	34.09711	580.63220	11.08331	1259.01807	-1031.33118	
2687	26.860	-785.39923	-22.41958	-657.58807	785.06665	-23.96098	-635.43604	-716.92822	32.48723	474.78030	697.96985	34.33548	580.57306	11.02736	1258.87012	-1031.83813	
2688	26.870	-785.72516	-22.67889	-657.99585	785.07648	-24.15876	-635.40985	-716.87653	32.65282	474.77518	698.03906	34.56769	580.45508	10.96861	1258.59558	-1032.52319	
2689	26.880	-785.76385	-23.07179	-658.30865	785.09290	-24.36780	-635.50446	-716.88593	32.84895	474.72205	697.99738	34.76049	580.31451	10.73340	1257.97034	-1032.75635	
2690	26.890	-785.64099	-23.32703	-658.46887	785.06757	-24.65727	-635.58868	-716.90961	33.06192	474.66336	697.95990	34.92870	580.20801	10.92139	1257.56274	-1033.54761	
2691	26.900	-785.61920	-23.48214	-658.40149	785.07269	-24.94749	-635.63831	-717.01385	33.32489	474.57053	697.96893	35.09872	580.18524	11.08440	1257.16968	-1034.15234	
2692	26.910	-785.49487	-23.44089	-658.17688	785.21173	-25.17651	-635.68329	-716.92432	33.50988	474.52130	697.95087	35.23428	580.10736	11.19787	1256.85217	-1034.86975	
2693	26.920	-785.45203	-23.69457	-658.33008	785.17365	-25.40110	-635.62646	-716.98792	33.68705	474.42816	697.86365	35.34935	580.06390	10.71411	1256.28711	-1035.23779	
2694	26.930	-785.41864	-23.95530	-658.36304	785.28955	-25.59617	-635.68146	-716.99304	33.85765	474.34195	697.90436	35.49896	579.99731	10.95516	1255.96558	-1036.14001	
2695	26.940	-785.38293	-24.37952	-658.36383	785.34558	-25.88814	-635.78094	-716.92401	33.97790	474.27679	698.01599	35.76878	579.91779	11.10515	1255.62573	-1036.62781	
2696	26.950	-785.28986	-24.65323	-658.42908	785.41388	-26.16299	-635.90112	-716.83624	34.08477	474.23676	698.19189	36.01028	579.80560	11.39646	1255.12415	-1037.24451	
2697	26.960	-785.11981	-25.01480	-658.36487	785.57898	-26.46552	-635.92651	-716.60950	34.23542	474.19052	698.53662	36.29201	579.67316	11.62728	1254.78906	-1037.37061	
